<svg xmlns="http://www.w3.org/2000/svg" viewBox="-9095.5 -401.501 42.701 26.996">
  <defs>
    <style>
      .cls-1 {
        fill: #e6c96a;
        stroke: #e6c96a;
      }
    </style>
  </defs>
  <g id="flecha_izquiera_amarilla" data-name="flecha izquiera amarilla" transform="translate(-9072.199 -365.01) rotate(180)">
    <g id="Group_66" data-name="Group 66" transform="translate(-18.9 9.995)">
      <path id="Path_859" data-name="Path 859" class="cls-1" d="M41.136,12.434H1.752L10.962.907a.553.553,0,0,0-.113-.791.553.553,0,0,0-.791.113L.113,12.66A.8.8,0,0,0,0,13H0a.606.606,0,0,0,.113.339l9.945,12.431A.7.7,0,0,0,10.51,26a.8.8,0,0,0,.339-.113.608.608,0,0,0,.113-.791L1.752,13.564H41.136a.565.565,0,0,0,0-1.13Z" transform="translate(41.701 25.995) rotate(180)"/>
    </g>
  </g>
</svg>
