<svg xmlns="http://www.w3.org/2000/svg" viewBox="-15361 596 108 43.934">
  <defs>
    <style>
      .cls-1 {
        fill: #e6c96a;
      }
    </style>
  </defs>
  <g id="Group_6" data-name="Group 6" transform="translate(-15361 596)">
    <g id="Group_4" data-name="Group 4" transform="translate(0)">
      <path id="Path_19" data-name="Path 19" class="cls-1" d="M77.282,39.451c-1.223-1.223-1.875-1.386-1.06-4.972.9-3.586-1.386-2.934-1.386-2.934,1.223,1.223,0,2.934,0,2.934-1.712,2.282-2.038,3.831-2.2,3.668a109.979,109.979,0,0,1-16.3-26.409l-.082-.245a.917.917,0,0,0,.571-.9.979.979,0,0,0-.734-.978h0l.571-.408C55.275,6.439,55.275,0,55.275,0s0,6.6-1.386,9.292l.571.408h0a.918.918,0,0,0-.652.978,1.012,1.012,0,0,0,.652.978l-.082.245A89.776,89.776,0,0,1,36.691,39.369s-.163-1.549-2.445-4.565c0,0-1.223-1.793,0-2.934,0,0-2.282-.571-1.386,2.934.9,3.586.163,3.749-1.06,4.972,0,0,4.483,1.793,1.386,4.157,0,0,16.709-11.085,31.3-6.358,0,0-5.95-5.95-19.481-1.956,0,0,7.091-9.863,10.27-16.709,0,0,7.336,15.405,17.443,22.986A22.526,22.526,0,0,0,75.9,43.771C73.044,41.162,77.282,39.451,77.282,39.451Z" transform="translate(-5.88)"/>
      <path id="Path_20" data-name="Path 20" class="cls-1" d="M0,13.3H8.558c6.113,0,11.737,2.527,11.737,7.5,0,4.565-4.728,6.6-7.662,7.5-.245.082-.163.245,0,.245,5.054.734,9.618,3.423,9.618,8.477,0,5.461-5.3,8.8-12.063,8.8-2.119,0-8.8-.163-10.189-.163V13.3Zm3.586,3.1C3.5,18.68,3.5,24.059,3.5,27.972c2.2,0,4.646-.163,5.706-.163,4.4-.163,6.684-3.016,6.684-7.091,0-4.32-2.608-6.276-8.314-6.276C3.912,14.441,3.586,14.2,3.586,16.4Zm0,26.328c0,2.119,1.223,1.956,2.69,1.956,1.712,0,3.26,0,4.4-.082,2.2-.082,7.091-1.141,7.01-7.662-.082-5.3-3.994-7.58-8.558-7.58-1.63,0-4.646-.082-5.054-.082-.326,0-.489.082-.489.408S3.586,41.747,3.586,42.725Z" transform="translate(0 -2.459)"/>
      <path id="Path_21" data-name="Path 21" class="cls-1" d="M105.8,14.008l8.4,25.186c2.445-7.743,7.743-24.371,7.988-25.594h1.63c-.408.978-9.944,30.729-10.515,31.952-.163.326-.082.326-.408.326-.408,0-.571-.082-.652-.408-.815-3.912-4.972-16.628-7.5-24.29-2.038,6.439-7.254,21.6-7.825,24.208-.082.408-.326.326-.734.326s-.652-.082-.734-.408C94.874,42.373,85.908,14.578,85.5,13.6h3.912L97.4,39.357Z" transform="translate(-15.809 -2.515)"/>
    </g>
  </g>
</svg>
