<svg xmlns="http://www.w3.org/2000/svg" viewBox="124.751 302.473 125.998 63.427">
  <defs>
    <style>
      .cls-1 {
        fill: #dec26a;
      }
    </style>
  </defs>
  <g id="Logo_boutique" data-name="Logo boutique" transform="translate(124.751 302.473)">
    <g id="Group_8" data-name="Group 8" transform="translate(0)">
      <path id="Path_22" data-name="Path 22" class="cls-1" d="M84.862,46.025c-1.426-1.426-2.187-1.617-1.236-5.8,1.046-4.184-1.617-3.423-1.617-3.423,1.426,1.426,0,3.423,0,3.423-2,2.663-2.377,4.469-2.567,4.279-5.04-6.086-13.408-17.4-19.019-30.81l-.1-.285a1.07,1.07,0,0,0,.666-1.046,1.142,1.142,0,0,0-.856-1.141h0l.666-.475C59.187,7.512,59.187,0,59.187,0s0,7.7-1.617,10.841l.666.475h0a1.071,1.071,0,0,0-.761,1.141,1.18,1.18,0,0,0,.761,1.141l-.1.285A104.737,104.737,0,0,1,37.506,45.93s-.19-1.807-2.853-5.325c0,0-1.426-2.092,0-3.423,0,0-2.663-.666-1.617,3.423,1.046,4.184.19,4.374-1.236,5.8,0,0,5.23,2.092,1.617,4.85,0,0,19.494-12.933,36.516-7.417,0,0-6.942-6.942-22.727-2.282,0,0,8.273-11.506,11.982-19.494,0,0,8.558,17.973,20.35,26.816a26.28,26.28,0,0,0,3.709,2.187C79.917,48.022,84.862,46.025,84.862,46.025Z" transform="translate(-1.561)"/>
      <path id="Path_23" data-name="Path 23" class="cls-1" d="M0,13.3H9.985c7.132,0,13.693,2.948,13.693,8.749,0,5.325-5.515,7.7-8.939,8.749-.285.1-.19.285,0,.285,5.9.856,11.221,3.994,11.221,9.89,0,6.371-6.181,10.27-14.074,10.27-2.472,0-10.27-.19-11.887-.19V13.3Zm4.184,3.614c-.1,2.663-.1,8.939-.1,13.5,2.568,0,5.42-.19,6.656-.19,5.135-.19,7.8-3.518,7.8-8.273,0-5.04-3.043-7.322-9.7-7.322C4.564,14.631,4.184,14.346,4.184,16.914Zm0,30.715c0,2.472,1.426,2.282,3.138,2.282,2,0,3.8,0,5.135-.1,2.568-.1,8.273-1.331,8.178-8.939-.1-6.181-4.66-8.844-9.985-8.844-1.9,0-5.42-.1-5.9-.1-.38,0-.571.1-.571.475S4.184,46.487,4.184,47.628Z" transform="translate(0 -0.653)"/>
      <path id="Path_24" data-name="Path 24" class="cls-1" d="M109.178,14.075l9.795,29.384c2.853-9.034,9.034-28.433,9.319-29.859h1.9c-.475,1.141-11.6,35.85-12.267,37.276-.19.38-.1.38-.475.38-.475,0-.666-.1-.761-.475-.951-4.564-5.8-19.4-8.749-28.338-2.377,7.512-8.463,25.2-9.129,28.243-.1.475-.38.38-.856.38s-.761-.1-.856-.475c-.666-3.423-11.126-35.85-11.6-36.991h4.564l9.319,30.049Z" transform="translate(-4.196 -0.667)"/>
    </g>
    <g id="Group_9" data-name="Group 9" transform="translate(22.727 57.151)">
      <path id="Path_25" data-name="Path 25" class="cls-1" d="M23.9,60.771V60.2h3.138v.571H25.8v5.135h-.571V60.771Z" transform="translate(-23.9 -60.105)"/>
      <path id="Path_26" data-name="Path 26" class="cls-1" d="M28.5,60.2h.571v2.377h2.853V60.2h.571v5.706h-.571V63.148H29.071v2.758H28.5Z" transform="translate(-24.126 -60.105)"/>
      <path id="Path_27" data-name="Path 27" class="cls-1" d="M36.958,60.2l2.663,5.706H39.05L38.194,64H35.721l-.856,1.9H34.2L36.863,60.2h.1Zm0,1.236-.951,2.092h1.9Z" transform="translate(-24.405 -60.105)"/>
      <path id="Path_28" data-name="Path 28" class="cls-1" d="M41.3,60.2h.571v5.706H41.3Z" transform="translate(-24.754 -60.105)"/>
      <path id="Path_29" data-name="Path 29" class="cls-1" d="M45.9,64.855l.475-.285c.38.666.761.951,1.141.951a1.206,1.206,0,0,0,.571-.1.742.742,0,0,0,.38-.38.857.857,0,0,0,.1-.475,1.351,1.351,0,0,0-.19-.571,4.408,4.408,0,0,0-.951-.951c-.475-.38-.761-.571-.856-.761a1.534,1.534,0,0,1-.285-.856,1.374,1.374,0,0,1,.19-.666,1.146,1.146,0,0,1,.475-.475,1.763,1.763,0,0,1,.666-.19,2.238,2.238,0,0,1,.761.19,2.8,2.8,0,0,1,.761.761l-.475.38a1.615,1.615,0,0,0-.571-.571.857.857,0,0,0-.475-.1,1.351,1.351,0,0,0-.571.19c-.19.1-.19.285-.19.475a.572.572,0,0,0,.1.38c.1.1.19.285.285.38a3.548,3.548,0,0,0,.761.571,5.388,5.388,0,0,1,1.046.951,1.4,1.4,0,0,1-.19,1.9,1.575,1.575,0,0,1-1.141.475,1.606,1.606,0,0,1-.951-.285C46.375,65.615,46.185,65.235,45.9,64.855Z" transform="translate(-24.98 -60.1)"/>
      <path id="Path_30" data-name="Path 30" class="cls-1" d="M51.2,60.2h1.141a4.681,4.681,0,0,1,1.331.1,2.071,2.071,0,0,1,.761.475,1.728,1.728,0,0,1,0,1.9,1.28,1.28,0,0,1-.856.475,5.475,5.475,0,0,1-1.426.1h-.38v2.663H51.2Zm.571.571v1.9h.951a2.111,2.111,0,0,0,.856-.1.743.743,0,0,0,.38-.38,1.352,1.352,0,0,0,.19-.571.726.726,0,0,0-.19-.475c-.1-.19-.285-.285-.38-.38a2.111,2.111,0,0,0-.856-.1h-.951Z" transform="translate(-25.24 -60.105)"/>
      <path id="Path_31" data-name="Path 31" class="cls-1" d="M58.958,60.2l2.663,5.706H61.05L60.194,64H57.721l-.856,1.9H56.2L58.863,60.2h.1Zm-.1,1.236-.951,2.092h1.9Z" transform="translate(-25.485 -60.105)"/>
      <path id="Path_32" data-name="Path 32" class="cls-1" d="M66.1,60.2h1.141a2.935,2.935,0,0,1,1.046.19.974.974,0,0,1,.571.475,1.791,1.791,0,0,1,.19.761,1.374,1.374,0,0,1-.19.666.974.974,0,0,1-.571.475c.285.1.571.19.666.38a.949.949,0,0,1,.38.475,1.41,1.41,0,0,1,.1.666,1.575,1.575,0,0,1-.475,1.141,2.061,2.061,0,0,1-1.331.475H66.1V60.2Zm.571.571v1.807h.285a2.111,2.111,0,0,0,.856-.1.949.949,0,0,0,.475-.38,1.352,1.352,0,0,0,.19-.571.575.575,0,0,0-.285-.571c-.19-.19-.475-.19-.856-.19h-.666Zm0,2.377v2.187h.666a2.65,2.65,0,0,0,.951-.1.949.949,0,0,0,.475-.38,1.352,1.352,0,0,0,.19-.571.863.863,0,0,0-.285-.666,1.533,1.533,0,0,0-.666-.38c-.19,0-.571-.1-1.046-.1Z" transform="translate(-25.971 -60.105)"/>
      <path id="Path_33" data-name="Path 33" class="cls-1" d="M74.053,60.1a3.012,3.012,0,0,1,2.187.856,2.985,2.985,0,0,1,0,4.184A2.95,2.95,0,0,1,74.148,66a3.005,3.005,0,0,1-2.568-4.469,4.054,4.054,0,0,1,1.046-1.141A3.176,3.176,0,0,1,74.053,60.1Zm0,.571a2.928,2.928,0,0,0-1.236.285,1.866,1.866,0,0,0-.856.856,2.632,2.632,0,0,0-.285,1.236,2.28,2.28,0,0,0,2.377,2.377,2.632,2.632,0,0,0,1.236-.285,1.866,1.866,0,0,0,.856-.856,2.821,2.821,0,0,0,0-2.472,1.866,1.866,0,0,0-.856-.856A2.632,2.632,0,0,0,74.053,60.671Z" transform="translate(-26.221 -60.1)"/>
      <path id="Path_34" data-name="Path 34" class="cls-1" d="M79.1,60.2h.571v4.184a1.352,1.352,0,0,0,.19.571.949.949,0,0,0,.475.38,1.763,1.763,0,0,0,.666.19,1.206,1.206,0,0,0,.571-.1c.19-.1.285-.19.475-.285a2.079,2.079,0,0,0,.285-.475c0-.19.1-.475.1-.856V60.39H83v3.423a4.22,4.22,0,0,1-.19,1.236,2.246,2.246,0,0,1-.571.856,1.994,1.994,0,0,1-1.046.38A2.028,2.028,0,0,1,80.051,66a1.517,1.517,0,0,1-.666-.856,3.949,3.949,0,0,1-.1-1.236V60.2Z" transform="translate(-26.609 -60.105)"/>
      <path id="Path_35" data-name="Path 35" class="cls-1" d="M84.4,60.771V60.2h3.138v.571H86.3v5.135h-.571V60.771Z" transform="translate(-26.869 -60.105)"/>
      <path id="Path_36" data-name="Path 36" class="cls-1" d="M89,60.2h.571v5.706H89Z" transform="translate(-27.095 -60.105)"/>
      <path id="Path_37" data-name="Path 37" class="cls-1" d="M96.24,65.33l.856,1.046H96.43l-.666-.761a2.947,2.947,0,0,1-1.617.475,3.005,3.005,0,0,1-2.568-4.469,4.053,4.053,0,0,1,1.046-1.141A2.968,2.968,0,0,1,97.1,63.048a4.818,4.818,0,0,1-.19,1.236A3.212,3.212,0,0,1,96.24,65.33Zm-.38-.475a2.435,2.435,0,0,0,.761-1.807,2.632,2.632,0,0,0-.285-1.236,1.866,1.866,0,0,0-.856-.856,2.632,2.632,0,0,0-1.236-.285,2.928,2.928,0,0,0-1.236.285,1.866,1.866,0,0,0-.856.856,2.632,2.632,0,0,0-.285,1.236,2.28,2.28,0,0,0,2.377,2.377,2.632,2.632,0,0,0,1.236-.285l-1.236-1.617h.571Z" transform="translate(-27.203 -60.1)"/>
      <path id="Path_38" data-name="Path 38" class="cls-1" d="M99.2,60.2h.571v4.184a1.352,1.352,0,0,0,.19.571.949.949,0,0,0,.475.38,1.763,1.763,0,0,0,.666.19,1.206,1.206,0,0,0,.571-.1c.19-.1.285-.19.475-.285a2.079,2.079,0,0,0,.285-.475c0-.19.1-.475.1-.856V60.39h.571v3.423a4.22,4.22,0,0,1-.19,1.236,2.246,2.246,0,0,1-.571.856,1.994,1.994,0,0,1-1.046.38A2.028,2.028,0,0,1,100.151,66a1.518,1.518,0,0,1-.666-.856,3.949,3.949,0,0,1-.1-1.236V60.2Z" transform="translate(-27.595 -60.105)"/>
      <path id="Path_39" data-name="Path 39" class="cls-1" d="M105.2,60.2h3.233v.571h-2.663v1.807h2.663v.571h-2.663v2.187h2.663v.571H105.2Z" transform="translate(-27.89 -60.105)"/>
    </g>
  </g>
</svg>
