<svg xmlns="http://www.w3.org/2000/svg" viewBox="-6185 -214 25.406 25">
  <defs>
    <style>
      .cls-1 {
        fill: #0f0f0f;
      }
    </style>
  </defs>
  <g id="noun_1270830_cc" transform="translate(-6024.8 -183.546)">
    <g id="Group_11" data-name="Group 11" transform="translate(-160.2 -30.454)">
      <path id="Path_41" data-name="Path 41" class="cls-1" d="M33.9,31.951c-1.757-.813-4.294-1.724-5.2-2.049a6.966,6.966,0,0,0-.52-1.431,1.154,1.154,0,0,0-.455-.553l.033-1.041a1.7,1.7,0,0,0,.325-.358c0-.033.033-.033.033-.065.033-.033.065-.1.1-.13a.114.114,0,0,1,.033-.065c.033-.033.033-.1.065-.13,0-.033.033-.065.033-.1.033-.033.033-.065.065-.13,0-.033.033-.065.033-.1.033-.033.033-.065.065-.13,0-.033.033-.065.033-.1s.033-.065.033-.13c0-.033.033-.065.033-.1s.033-.065.033-.13c0-.033.033-.065.033-.1s.033-.065.033-.13a17542.81,17542.81,0,0,0,.065-.2v-.1a.12.12,0,0,1,.033-.1v-.651a1.74,1.74,0,0,0,.2-.423,12.788,12.788,0,0,0,.358-1.3,2.2,2.2,0,0,0-.163-1.724c.26-.943.716-3.123.13-4.326a5,5,0,0,0-2.6-2.57c-.455-.2-2.732-1.2-3.936-1.041a3,3,0,0,0-2.765,2.114,2.552,2.552,0,0,1-.455.065,1.578,1.578,0,0,0-1.529,1.139,6.435,6.435,0,0,0-.228,4.652.248.248,0,0,0-.065.163,2.37,2.37,0,0,0-.033,1.529,5.806,5.806,0,0,0,.488,1.594c.033.033.033.065.065.13v.618a.119.119,0,0,0,.033.1v.065a17543.53,17543.53,0,0,0,.065.2c0,.033.033.065.033.13a.12.12,0,0,0,.033.1c0,.033.033.065.033.13,0,.033.033.065.033.1s.033.065.033.13c0,.033.033.065.033.1s.033.065.033.13c0,.033.033.065.033.1.033.033.033.065.065.13,0,.033.033.065.033.1.033.033.033.065.065.1s.033.065.065.1.033.065.065.1.033.065.065.1.065.065.065.1c.033.033.033.065.065.1l.1.1c.033.033.033.065.065.065l.033.033.033,1.041a1.154,1.154,0,0,0-.455.553c-.2.423-.39,1.041-.52,1.431-.911.325-3.448,1.2-5.2,2.049A4.051,4.051,0,0,0,10.8,35.594a.568.568,0,0,0,.13.39c.358.455,2.342,1.561,13.142,1.561,9.759,0,11.645-1.106,12-1.561a.568.568,0,0,0,.13-.39A3.921,3.921,0,0,0,33.9,31.951ZM19.323,23.265a8.564,8.564,0,0,1-.325-1.2,3.6,3.6,0,0,1-.065-.683.877.877,0,0,0,.26-.228.591.591,0,0,0,0-.651,4.954,4.954,0,0,1,.065-4.034c.13-.293.13-.293.455-.358a3.89,3.89,0,0,0,1.139-.26.643.643,0,0,0,.39-.586c0-.1.1-1.073,1.724-1.334a9.01,9.01,0,0,1,3.253.943,3.915,3.915,0,0,1,1.952,1.952,2.176,2.176,0,0,1,.163,1.008,10.692,10.692,0,0,1-.488,2.8.732.732,0,0,0,.033.455c.033.033.033.1.065.13a1.415,1.415,0,0,0,.228.2,3.8,3.8,0,0,1-.065.683,4.257,4.257,0,0,1-.39,1.334.311.311,0,0,0-.163.293v.13a3.081,3.081,0,0,1-.846,2.212c-.033.033-.065.033-.1.065a7.935,7.935,0,0,1-2.082,1.789,3.1,3.1,0,0,1-2.407-.13,4.245,4.245,0,0,1-1.594-1.529c0-.033-.033-.033-.033-.065l-.033-.033-.1-.1a2.968,2.968,0,0,1-.813-2.017v-.2c0-.2,0-.325-.163-.455C19.388,23.363,19.355,23.33,19.323,23.265Zm4.814,12.979c-8.62,0-11.223-.716-11.938-1.008a2.768,2.768,0,0,1,1.561-2.114c2.049-.976,5.367-2.082,5.4-2.114a.663.663,0,0,0,.423-.455,9.989,9.989,0,0,1,.455-1.431.766.766,0,0,0,.26-.065.638.638,0,0,0,.39-.618v-.1a3.466,3.466,0,0,0,.911.618,4.45,4.45,0,0,0,1.919.423,4.63,4.63,0,0,0,1.464-.26,4.531,4.531,0,0,0,1.431-.943v.293a.669.669,0,0,0,.39.618.766.766,0,0,0,.26.065,9.99,9.99,0,0,1,.455,1.431.663.663,0,0,0,.423.455c.033,0,3.35,1.139,5.4,2.114A2.768,2.768,0,0,1,34.9,35.3C34.253,35.561,31.846,36.245,24.137,36.245Z" transform="translate(-10.8 -12.546)"/>
    </g>
  </g>
</svg>
