<svg xmlns="http://www.w3.org/2000/svg" viewBox="-13673.168 608 31.504 31">
  <defs>
    <style>
      .cls-1 {
        fill: #e6c96a;
      }
    </style>
  </defs>
  <g id="noun_1270830_cc" transform="translate(-13512.968 641.454)">
    <g id="Group_11" data-name="Group 11" transform="translate(-160.2 -33.454)">
      <path id="Path_41" data-name="Path 41" class="cls-1" d="M39.439,36.608c-2.178-1.008-5.324-2.138-6.454-2.541a8.639,8.639,0,0,0-.645-1.775,1.431,1.431,0,0,0-.565-.686l.04-1.291a2.114,2.114,0,0,0,.4-.444c0-.04.04-.04.04-.081.04-.04.081-.121.121-.161a.141.141,0,0,1,.04-.081c.04-.04.04-.121.081-.161,0-.04.04-.081.04-.121.04-.04.04-.081.081-.161,0-.04.04-.081.04-.121.04-.04.04-.081.081-.161,0-.04.04-.081.04-.121s.04-.081.04-.161c0-.04.04-.081.04-.121s.04-.081.04-.161c0-.04.04-.081.04-.121s.04-.081.04-.161a26973.727,26973.727,0,0,0,.081-.242v-.121a.148.148,0,0,1,.04-.121v-.807a2.158,2.158,0,0,0,.242-.524,15.856,15.856,0,0,0,.444-1.613,2.73,2.73,0,0,0-.2-2.138c.323-1.17.887-3.872.161-5.365a6.2,6.2,0,0,0-3.227-3.187c-.565-.242-3.388-1.492-4.881-1.291-2.259.323-3.187,1.613-3.429,2.622a3.164,3.164,0,0,1-.565.081,1.957,1.957,0,0,0-1.9,1.412,7.979,7.979,0,0,0-.282,5.768.308.308,0,0,0-.081.2,2.939,2.939,0,0,0-.04,1.9,7.2,7.2,0,0,0,.605,1.976c.04.04.04.081.081.161v.766a.148.148,0,0,0,.04.121v.081a1662166297725.559,1662166297725.559,0,0,0,.081.242c0,.04.04.081.04.161a.148.148,0,0,0,.04.121c0,.04.04.081.04.161,0,.04.04.081.04.121s.04.081.04.161c0,.04.04.081.04.121s.04.081.04.161c0,.04.04.081.04.121.04.04.04.081.081.161,0,.04.04.081.04.121.04.04.04.081.081.121s.04.081.081.121.04.081.081.121.04.081.081.121.081.081.081.121c.04.04.04.081.081.121l.121.121c.04.04.04.081.081.081l.04.04.04,1.291a1.432,1.432,0,0,0-.565.686c-.242.524-.484,1.291-.645,1.775-1.129.4-4.276,1.492-6.454,2.541a5.023,5.023,0,0,0-2.9,4.558.7.7,0,0,0,.161.484c.444.565,2.9,1.936,16.3,1.936,12.1,0,14.44-1.371,14.884-1.936a.7.7,0,0,0,.161-.484A4.862,4.862,0,0,0,39.439,36.608ZM21.368,25.838a10.619,10.619,0,0,1-.4-1.492,4.457,4.457,0,0,1-.081-.847,1.087,1.087,0,0,0,.323-.282.733.733,0,0,0,0-.807,6.142,6.142,0,0,1,.081-5c.161-.363.161-.363.565-.444a4.824,4.824,0,0,0,1.412-.323.8.8,0,0,0,.484-.726c0-.121.121-1.331,2.138-1.654.766-.121,2.783.605,4.034,1.17a4.855,4.855,0,0,1,2.42,2.42,2.7,2.7,0,0,1,.2,1.25,13.258,13.258,0,0,1-.605,3.469.908.908,0,0,0,.04.565c.04.04.04.121.081.161a1.754,1.754,0,0,0,.282.242,4.713,4.713,0,0,1-.081.847,5.278,5.278,0,0,1-.484,1.654.386.386,0,0,0-.2.363v.161a3.82,3.82,0,0,1-1.049,2.743c-.04.04-.081.04-.121.081a9.84,9.84,0,0,1-2.582,2.218,3.848,3.848,0,0,1-2.985-.161,5.264,5.264,0,0,1-1.976-1.9c0-.04-.04-.04-.04-.081l-.04-.04-.121-.121a3.68,3.68,0,0,1-1.008-2.5v-.242c0-.242,0-.4-.2-.565C21.449,25.959,21.408,25.919,21.368,25.838Zm5.97,16.094c-10.689,0-13.916-.887-14.8-1.25a3.433,3.433,0,0,1,1.936-2.622c2.541-1.21,6.655-2.582,6.7-2.622a.822.822,0,0,0,.524-.565,12.387,12.387,0,0,1,.565-1.775.949.949,0,0,0,.323-.081.791.791,0,0,0,.484-.766v-.121a4.3,4.3,0,0,0,1.129.766,5.518,5.518,0,0,0,2.38.524,5.742,5.742,0,0,0,1.815-.323,5.619,5.619,0,0,0,1.775-1.17v.363a.83.83,0,0,0,.484.766.949.949,0,0,0,.323.081,12.387,12.387,0,0,1,.565,1.775.822.822,0,0,0,.524.565c.04,0,4.155,1.412,6.7,2.622a3.432,3.432,0,0,1,1.936,2.662C39.882,41.085,36.9,41.932,27.338,41.932Z" transform="translate(-10.8 -12.546)"/>
    </g>
  </g>
</svg>
