<svg xmlns="http://www.w3.org/2000/svg" viewBox="-13612.999 608 36.186 33">
  <defs>
    <style>
      .cls-1 {
        fill: #e6c96a;
      }
    </style>
  </defs>
  <g id="noun_968248_cc" transform="translate(-13615 599)">
    <path id="Path_40" data-name="Path 40" class="cls-1" d="M15.22,35.693a3.153,3.153,0,1,0,0,6.307,3.2,3.2,0,0,0,2.826-1.754,3.015,3.015,0,0,0,.328-1.4A3.157,3.157,0,0,0,15.22,35.693Zm0,4.778a1.625,1.625,0,1,1,1.625-1.625A1.626,1.626,0,0,1,15.22,40.471Zm15.923-4.778A3.153,3.153,0,1,0,34.3,38.847,3.157,3.157,0,0,0,31.143,35.693Zm0,4.778a1.625,1.625,0,1,1,1.625-1.625,1.734,1.734,0,0,1-.208.794A1.58,1.58,0,0,1,31.143,40.471Zm6.922-23.2a.763.763,0,0,0-.575-.347l-9.664-.859h0l-19.1-1.7-1.256-4.8A.765.765,0,0,0,6.726,9H2.765a.764.764,0,0,0,0,1.529H6.136l6.056,23.128a.764.764,0,0,0,.74.571H32.141a.764.764,0,1,0,0-1.529H13.522l-.935-3.569,6.783-.583h0l15.035-1.292a.764.764,0,0,0,.656-.509l3.08-8.807A.766.766,0,0,0,38.064,17.272ZM9.133,15.94l3.476.309.5,2.832-3.178-.094Zm1.2,4.588,3.047.09.484,2.736-2.777.054Zm1.859,7.1-.707-2.7,2.648-.052.45,2.545Zm1.993-11.24,3.559.316.183,2.518-3.257-.1Zm.756,4.276,3.1.092.183,2.513-2.809.055Zm1.172,6.627-.432-2.444,2.65-.052.167,2.29Zm6.308-.542-2.4.206-.159-2.19,2.558-.05Zm0-3.564-2.67.053L19.576,20.8l2.847.084v2.3Zm0-3.83-2.958-.088-.176-2.427,3.134.279Zm3.954,7.053-2.426.209V24.686l2.542-.05Zm.217-3.305-2.643.052V20.931l2.78.082Zm.238-3.617L23.952,19.4V17.256l3.01.268Zm3.653,6.569-2.567.221.11-1.671,2.729-.054Zm.548-3.039-2.9.057.133-2.016,3.109.092Zm.611-3.389-3.283-.1.123-1.873,3.46.307Zm2.139,6.144-1.72.148.252-1.4,1.918-.037Zm.989-2.829-2.18.042.323-1.791,2.444.072Zm1.115-3.189-2.7-.08.284-1.573,2.9.258Z"/>
  </g>
</svg>
